<svg width="180" height="32" viewBox="0 0 180 32" fill="none" xmlns="http://www.w3.org/2000/svg">
<path fill-rule="evenodd" clip-rule="evenodd" d="M16.9306 3.45341C16.9306 4.84747 15.8146 5.95638 14.4117 5.95638C13.0088 5.95638 11.8928 4.84747 11.8928 3.45341C11.8928 2.05935 13.0088 0.950439 14.4117 0.950439C15.8146 0.950439 16.9306 2.05935 16.9306 3.45341Z" fill="#F42800"/>
<path fill-rule="evenodd" clip-rule="evenodd" d="M15.9104 8.45939C15.9104 9.28315 15.2408 9.98018 14.3799 9.98018C13.5509 9.98018 12.8813 9.31484 12.8813 8.45939C12.8813 7.63563 13.5509 6.9386 14.3799 6.9386C15.2408 6.97028 15.9104 7.63563 15.9104 8.45939Z" fill="#F42800"/>
<path fill-rule="evenodd" clip-rule="evenodd" d="M11.8928 28.5464C11.8928 27.1524 13.0088 26.0435 14.4117 26.0435C15.8146 26.0435 16.9306 27.1524 16.9306 28.5464C16.9306 29.9405 15.8146 31.0494 14.4117 31.0494C13.0088 31.0494 11.8928 29.9405 11.8928 28.5464Z" fill="#1696D5"/>
<path fill-rule="evenodd" clip-rule="evenodd" d="M12.8813 23.5406C12.8813 22.7168 13.5509 22.0198 14.4118 22.0198C15.2408 22.0198 15.9104 22.6851 15.9104 23.5406C15.9104 24.3643 15.2408 25.0614 14.4118 25.0614C13.5828 25.0297 12.8813 24.3643 12.8813 23.5406Z" fill="#1696D5"/>
<path fill-rule="evenodd" clip-rule="evenodd" d="M4.75078 7.5722C5.96239 8.26923 6.37688 9.79002 5.67543 10.994C4.97397 12.1979 3.44352 12.6098 2.23191 11.9128C1.0203 11.2158 0.605804 9.69497 1.30726 8.49101C1.97683 7.28705 3.53917 6.87517 4.75078 7.5722Z" fill="#A8D23A"/>
<path fill-rule="evenodd" clip-rule="evenodd" d="M8.60876 10.9307C9.3421 11.3426 9.59718 12.2614 9.1508 12.9901C8.7363 13.7188 7.81165 13.9406 7.07831 13.5287C6.34497 13.1168 6.08989 12.198 6.53627 11.4693C6.95077 10.7723 7.87542 10.5188 8.60876 10.9307Z" fill="#A8D23A"/>
<path fill-rule="evenodd" clip-rule="evenodd" d="M24.0727 24.4277C22.8611 23.7307 22.4466 22.2099 23.1481 21.0059C23.8495 19.8019 25.38 19.3901 26.5916 20.0871C27.8032 20.7841 28.2177 22.3049 27.5163 23.5089C26.8148 24.7128 25.2843 25.1247 24.0727 24.4277Z" fill="#1696D5"/>
<path fill-rule="evenodd" clip-rule="evenodd" d="M20.2148 21.0693C19.4814 20.6574 19.2264 19.7386 19.6727 19.0099C20.0872 18.2811 21.0119 18.0594 21.7452 18.4712C22.4786 18.8831 22.7337 19.8019 22.2873 20.5306C21.8728 21.2277 20.9481 21.4811 20.2148 21.0693Z" fill="#1696D5"/>
<path fill-rule="evenodd" clip-rule="evenodd" d="M2.23191 20.0871C3.44352 19.3901 4.97397 19.8019 5.67543 21.0059C6.37688 22.2099 5.96239 23.7307 4.75078 24.4277C3.53917 25.1247 2.00872 24.7128 1.30726 23.5089C0.605804 22.3366 1.0203 20.7841 2.23191 20.0871Z" fill="#A8D23A"/>
<path fill-rule="evenodd" clip-rule="evenodd" d="M7.11029 18.4712C7.84363 18.0593 8.76828 18.3128 9.18278 19.0098C9.59727 19.7385 9.3422 20.6573 8.64074 21.0692C7.9074 21.4811 6.98275 21.2276 6.56826 20.5306C6.12187 19.8019 6.37695 18.8831 7.11029 18.4712Z" fill="#A8D23A"/>
<path fill-rule="evenodd" clip-rule="evenodd" d="M26.5916 11.9128C25.38 12.6098 23.8495 12.1979 23.1481 10.994C22.4466 9.79002 22.8611 8.26923 24.0727 7.5722C25.2843 6.87517 26.8148 7.28705 27.5163 8.49101C28.2177 9.66329 27.8032 11.2158 26.5916 11.9128Z" fill="#F42800"/>
<path fill-rule="evenodd" clip-rule="evenodd" d="M21.7133 13.5287C21.0118 13.9406 20.0872 13.7188 19.6727 12.9901C19.2582 12.2614 19.5132 11.3426 20.2147 10.9307C20.948 10.5188 21.8727 10.7723 22.2872 11.4693C22.7017 12.198 22.4466 13.1168 21.7133 13.5287Z" fill="#F42800"/>
<path d="M18.4611 13.6555L14.4117 11.3109L10.3624 13.6555L14.4117 15.9683L18.4611 13.6555Z" fill="#F42800"/>
<path d="M14.4117 15.9684V20.5941L18.4611 18.2813V13.6555L14.4117 15.9684Z" fill="#1696D5"/>
<path d="M10.3624 13.6555V18.2813L14.4117 20.5941V15.9684L10.3624 13.6555Z" fill="#A8D23A"/>
<path d="M39.0903 10.0752H32.9366V14.5426H38.899V16.1267H32.9047V21.9564H39.0584V23.5406H31.2467V8.49109H39.0903V10.0752Z" fill="black"/>
<path d="M42.1831 8.49109H45.2759C46.8063 8.49109 48.9426 8.6495 50.8557 10.2337C52.2267 11.3743 53.4383 13.3069 53.4383 16C53.4383 19.1683 51.876 20.8475 50.7919 21.7663C49.4209 22.9386 47.9542 23.5089 45.244 23.5089H42.1831V8.49109ZM43.8411 21.9564H45.3078C46.5194 21.9564 48.1774 21.8297 49.6441 20.5941C50.7919 19.6436 51.6847 18.1545 51.6847 16.0317C51.6847 12.4198 49.1339 10.0752 45.3078 10.0752H43.8411V21.9564Z" fill="black"/>
<path d="M75.7573 8.45947H78.8501C80.3806 8.45947 82.5168 8.61789 84.4299 10.202C85.8009 11.3426 87.0125 13.2753 87.0125 15.9684C87.0125 19.1367 85.4502 20.8159 84.3661 21.7347C82.9951 22.907 81.5284 23.4773 78.8182 23.4773H75.7573V8.45947ZM77.4153 21.9248H78.882C80.0936 21.9248 81.7516 21.7981 83.2183 20.5624C84.3661 19.612 85.2589 18.1228 85.2589 16.0001C85.2589 12.3882 82.7081 10.0436 78.882 10.0436H77.4153V21.9248Z" fill="black"/>
<path d="M96.9287 10.0436H90.775V14.511H96.7692V16.0951H90.775V21.9248H96.9287V23.509H89.0851V8.45947H96.9287V10.0436Z" fill="black"/>
<path d="M102.445 8.45947C103.465 8.45947 104.995 8.52284 106.111 9.28323C107.004 9.85353 107.769 11.0258 107.769 12.61C107.769 14.9228 106.239 16.602 103.975 16.7605L108.79 23.4773H106.749L102.158 16.8872H101.743V23.4773H100.053V8.45947H102.445ZM101.679 15.4298H102.732C104.804 15.4298 106.079 14.4476 106.079 12.6733C106.079 11.8496 105.824 10.9941 104.868 10.4555C104.198 10.0753 103.401 10.0119 102.7 10.0119H101.679V15.4298Z" fill="black"/>
<path d="M59.6876 8.49109H62.5253C62.7485 8.49109 62.9398 8.61782 63.0355 8.8396L68.0094 22.8119C68.137 23.1604 67.8819 23.5089 67.4993 23.5089H65.2036C64.9804 23.5089 64.7572 23.3505 64.6935 23.1287L63.8007 20.404H58.2209L57.3282 23.1287C57.2644 23.3505 57.0412 23.4772 56.818 23.4772H54.6499C54.2992 23.4772 54.0122 23.1287 54.1397 22.7802L59.1456 8.80792C59.2731 8.6495 59.4644 8.49109 59.6876 8.49109ZM59.1137 17.8376H62.9717L61.0587 11.9129L59.1137 17.8376Z" fill="black"/>
<path d="M70.4964 12.4198H72.4094C72.6964 12.4198 72.9515 12.6416 72.9515 12.9584V23.002C72.9515 23.2871 72.7283 23.5406 72.4094 23.5406H70.4964C70.2094 23.5406 69.9543 23.3188 69.9543 23.002V12.9584C69.9862 12.6416 70.2094 12.4198 70.4964 12.4198Z" fill="black"/>
<path fill-rule="evenodd" clip-rule="evenodd" d="M72.9516 9.98027C72.9516 10.804 72.2821 11.5011 71.4212 11.5011C70.5922 11.5011 69.9226 10.8357 69.9226 9.98027C69.9226 9.1565 70.5922 8.45947 71.4212 8.45947C72.2821 8.45947 72.9516 9.1565 72.9516 9.98027Z" fill="#1696D5"/>
<path d="M116.784 13.4453L119.532 20.5L122.403 12.9326L125.151 20.5L128.07 13.4453H129.8L125.083 24.6699L122.369 17.1914L119.539 24.6768L115.055 13.4453H116.784ZM136.062 21.0332H131.29C131.331 21.5801 131.509 22.0153 131.823 22.3389C132.138 22.6579 132.541 22.8174 133.033 22.8174C133.416 22.8174 133.733 22.7262 133.983 22.5439C134.229 22.3617 134.51 22.0244 134.824 21.5322L136.123 22.2568C135.923 22.5986 135.711 22.8926 135.487 23.1387C135.264 23.3802 135.025 23.5807 134.77 23.7402C134.514 23.8952 134.239 24.0091 133.942 24.082C133.646 24.1549 133.325 24.1914 132.979 24.1914C131.985 24.1914 131.188 23.8724 130.586 23.2344C129.984 22.5918 129.684 21.7396 129.684 20.6777C129.684 19.625 129.975 18.7728 130.559 18.1211C131.146 17.4785 131.926 17.1572 132.896 17.1572C133.876 17.1572 134.651 17.4694 135.221 18.0938C135.786 18.7135 136.068 19.5726 136.068 20.6709L136.062 21.0332ZM134.482 19.7754C134.268 18.9551 133.751 18.5449 132.931 18.5449C132.744 18.5449 132.568 18.5745 132.404 18.6338C132.24 18.6885 132.09 18.7705 131.953 18.8799C131.821 18.9847 131.707 19.1123 131.611 19.2627C131.516 19.4131 131.443 19.584 131.393 19.7754H134.482ZM139.288 12.4541V24H137.75V12.4541H139.288ZM142.774 12.4541V24H141.236V12.4541H142.774ZM146.261 12.4541V18.1143C146.876 17.4762 147.573 17.1572 148.353 17.1572C149.25 17.1572 149.998 17.4922 150.595 18.1621C151.192 18.8275 151.49 19.6569 151.49 20.6504C151.49 21.6758 151.189 22.5234 150.588 23.1934C149.991 23.8587 149.237 24.1914 148.325 24.1914C147.555 24.1914 146.867 23.8952 146.261 23.3027V24H144.723V12.4541H146.261ZM149.918 20.7188C149.918 20.0807 149.745 19.5612 149.398 19.1602C149.048 18.75 148.608 18.5449 148.079 18.5449C147.514 18.5449 147.054 18.7432 146.698 19.1396C146.347 19.5316 146.172 20.042 146.172 20.6709C146.172 21.318 146.345 21.8353 146.691 22.2227C147.038 22.6191 147.493 22.8174 148.059 22.8174C148.592 22.8174 149.034 22.6191 149.385 22.2227C149.74 21.8216 149.918 21.3203 149.918 20.7188ZM159.181 21.0332H154.409C154.45 21.5801 154.628 22.0153 154.942 22.3389C155.257 22.6579 155.66 22.8174 156.152 22.8174C156.535 22.8174 156.852 22.7262 157.103 22.5439C157.349 22.3617 157.629 22.0244 157.943 21.5322L159.242 22.2568C159.042 22.5986 158.83 22.8926 158.606 23.1387C158.383 23.3802 158.144 23.5807 157.889 23.7402C157.633 23.8952 157.358 24.0091 157.062 24.082C156.765 24.1549 156.444 24.1914 156.098 24.1914C155.104 24.1914 154.307 23.8724 153.705 23.2344C153.104 22.5918 152.803 21.7396 152.803 20.6777C152.803 19.625 153.094 18.7728 153.678 18.1211C154.266 17.4785 155.045 17.1572 156.016 17.1572C156.995 17.1572 157.77 17.4694 158.34 18.0938C158.905 18.7135 159.188 19.5726 159.188 20.6709L159.181 21.0332ZM157.602 19.7754C157.387 18.9551 156.87 18.5449 156.05 18.5449C155.863 18.5449 155.688 18.5745 155.523 18.6338C155.359 18.6885 155.209 18.7705 155.072 18.8799C154.94 18.9847 154.826 19.1123 154.73 19.2627C154.635 19.4131 154.562 19.584 154.512 19.7754H157.602ZM162.407 17.3418V24H160.869V17.3418H162.407ZM160.637 14.5732C160.637 14.3044 160.735 14.0719 160.931 13.876C161.127 13.68 161.361 13.582 161.635 13.582C161.913 13.582 162.15 13.68 162.346 13.876C162.542 14.0674 162.64 14.3021 162.64 14.5801C162.64 14.8581 162.542 15.0951 162.346 15.291C162.154 15.487 161.92 15.585 161.642 15.585C161.364 15.585 161.127 15.487 160.931 15.291C160.735 15.0951 160.637 14.8558 160.637 14.5732ZM164.355 17.3418H165.9V17.957C166.438 17.4238 167.044 17.1572 167.719 17.1572C168.493 17.1572 169.097 17.401 169.53 17.8887C169.904 18.3034 170.091 18.9801 170.091 19.9189V24H168.546V20.2812C168.546 19.625 168.455 19.1715 168.272 18.9209C168.095 18.6657 167.771 18.5381 167.302 18.5381C166.791 18.5381 166.429 18.7067 166.215 19.0439C166.005 19.3766 165.9 19.9577 165.9 20.7871V24H164.355V17.3418ZM178.479 23.8428C178.479 24.1572 178.467 24.4329 178.444 24.6699C178.426 24.9115 178.399 25.1234 178.362 25.3057C178.253 25.807 178.039 26.2376 177.72 26.5977C177.118 27.2904 176.291 27.6367 175.238 27.6367C174.35 27.6367 173.618 27.3975 173.044 26.9189C172.451 26.4268 172.11 25.7454 172.019 24.875H173.563C173.623 25.2031 173.721 25.4561 173.857 25.6338C174.176 26.0485 174.641 26.2559 175.252 26.2559C176.378 26.2559 176.94 25.5654 176.94 24.1846V23.2549C176.33 23.8792 175.626 24.1914 174.828 24.1914C173.921 24.1914 173.178 23.8633 172.6 23.207C172.016 22.5417 171.725 21.71 171.725 20.7119C171.725 19.7412 171.996 18.9163 172.538 18.2373C173.121 17.5173 173.892 17.1572 174.849 17.1572C175.687 17.1572 176.384 17.4694 176.94 18.0938V17.3418H178.479V23.8428ZM177.002 20.6846C177.002 20.0374 176.829 19.5202 176.482 19.1328C176.132 18.7363 175.683 18.5381 175.136 18.5381C174.552 18.5381 174.092 18.7546 173.755 19.1875C173.45 19.5749 173.297 20.0762 173.297 20.6914C173.297 21.2975 173.45 21.7943 173.755 22.1816C174.088 22.6055 174.548 22.8174 175.136 22.8174C175.724 22.8174 176.188 22.6032 176.53 22.1748C176.845 21.7874 177.002 21.2907 177.002 20.6846Z" fill="#6B7280"/>
</svg>
